<mxfile host="65bd71144e" modified="2020-10-16T22:31:14.182Z" agent="5.0 (Windows NT 10.0; Win64; x64) AppleWebKit/537.36 (KHTML, like Gecko) Code/1.50.1 Chrome/83.0.4103.122 Electron/9.2.1 Safari/537.36" version="13.6.5" etag="0j2IUcG7zf5t3JCb-Z8j">
    <diagram id="5kncwhrW63XmX-Ij5KuZ" name="Página-1">
        <mxGraphModel dx="1132" dy="640" grid="1" gridSize="10" guides="1" tooltips="1" connect="1" arrows="1" fold="1" page="1" pageScale="1" pageWidth="1169" pageHeight="1654" background="#ffffff" math="0" shadow="0">
            <root>
                <mxCell id="0"/>
                <mxCell id="1" parent="0"/>
                <mxCell id="251" value="&lt;b style=&quot;font-weight: normal&quot; id=&quot;docs-internal-guid-7e9eb5d0-7fff-9449-406e-d3c548aae784&quot;&gt;&lt;br&gt;&lt;div dir=&quot;ltr&quot; style=&quot;margin-left: 0pt&quot; align=&quot;left&quot;&gt;&lt;table style=&quot;border: none ; border-collapse: collapse ; width: 697.8897637795277pt ; table-layout: fixed&quot;&gt;&lt;colgroup&gt;&lt;col&gt;&lt;col&gt;&lt;col&gt;&lt;col&gt;&lt;col&gt;&lt;/colgroup&gt;&lt;tbody&gt;&lt;tr style=&quot;height: 21pt&quot;&gt;&lt;td colspan=&quot;5&quot; style=&quot;border-left: solid #000000 1pt ; border-right: solid #000000 1pt ; border-bottom: solid #000000 1pt ; border-top: solid #000000 1pt ; vertical-align: top ; padding: 5pt 5pt 5pt 5pt ; overflow: hidden ; overflow-wrap: break-word&quot;&gt;&lt;p dir=&quot;ltr&quot; style=&quot;line-height: 1.2 ; text-align: center ; margin-top: 0pt ; margin-bottom: 0pt&quot;&gt;&lt;span style=&quot;font-size: 14pt; font-family: arial; color: rgb(0, 0, 0); background-color: transparent; font-weight: 700; font-style: normal; font-variant: normal; text-decoration: none; vertical-align: baseline;&quot;&gt;ACTUADORES&amp;nbsp;&lt;/span&gt;&lt;/p&gt;&lt;/td&gt;&lt;/tr&gt;&lt;tr style=&quot;height: 0pt&quot;&gt;&lt;td style=&quot;border-left: solid #000000 1pt ; border-right: solid #000000 1pt ; border-bottom: solid #000000 1pt ; border-top: solid #000000 1pt ; vertical-align: top ; padding: 5pt 5pt 5pt 5pt ; overflow: hidden ; overflow-wrap: break-word&quot;&gt;&lt;p dir=&quot;ltr&quot; style=&quot;line-height: 1.2 ; text-align: center ; margin-top: 0pt ; margin-bottom: 0pt&quot;&gt;&lt;span style=&quot;font-size: 12pt; font-family: arial; color: rgb(0, 0, 0); background-color: transparent; font-weight: 700; font-style: normal; font-variant: normal; text-decoration: none; vertical-align: baseline;&quot;&gt;CLASIFICACIÓN&lt;/span&gt;&lt;/p&gt;&lt;/td&gt;&lt;td style=&quot;border-left: solid #000000 1pt ; border-right: solid #000000 1pt ; border-bottom: solid #000000 1pt ; border-top: solid #000000 1pt ; vertical-align: top ; padding: 5pt 5pt 5pt 5pt ; overflow: hidden ; overflow-wrap: break-word&quot;&gt;&lt;p dir=&quot;ltr&quot; style=&quot;line-height: 1.2 ; text-align: center ; margin-top: 0pt ; margin-bottom: 0pt&quot;&gt;&lt;span style=&quot;font-size: 12pt; font-family: arial; color: rgb(0, 0, 0); background-color: transparent; font-weight: 700; font-style: normal; font-variant: normal; text-decoration: none; vertical-align: baseline;&quot;&gt;SUBCLASIFICACIÓN&amp;nbsp;&lt;/span&gt;&lt;/p&gt;&lt;/td&gt;&lt;td style=&quot;border-left: solid #000000 1pt ; border-right: solid #000000 1pt ; border-bottom: solid #000000 1pt ; border-top: solid #000000 1pt ; vertical-align: top ; padding: 5pt 5pt 5pt 5pt ; overflow: hidden ; overflow-wrap: break-word&quot;&gt;&lt;p dir=&quot;ltr&quot; style=&quot;line-height: 1.2 ; text-align: center ; margin-top: 0pt ; margin-bottom: 0pt&quot;&gt;&lt;span style=&quot;font-size: 12pt; font-family: arial; color: rgb(0, 0, 0); background-color: transparent; font-weight: 700; font-style: normal; font-variant: normal; text-decoration: none; vertical-align: baseline;&quot;&gt;PRINCIPIO DE FUNCIONAMIENTO&amp;nbsp;&lt;/span&gt;&lt;/p&gt;&lt;/td&gt;&lt;td style=&quot;border-left: solid #000000 1pt ; border-right: solid #000000 1pt ; border-bottom: solid #000000 1pt ; border-top: solid #000000 1pt ; vertical-align: top ; padding: 5pt 5pt 5pt 5pt ; overflow: hidden ; overflow-wrap: break-word&quot;&gt;&lt;p dir=&quot;ltr&quot; style=&quot;line-height: 1.2 ; text-align: center ; margin-top: 0pt ; margin-bottom: 0pt&quot;&gt;&lt;span style=&quot;font-size: 12pt; font-family: arial; color: rgb(0, 0, 0); background-color: transparent; font-weight: 700; font-style: normal; font-variant: normal; text-decoration: none; vertical-align: baseline;&quot;&gt;VENTAJAS&amp;nbsp;&lt;/span&gt;&lt;/p&gt;&lt;/td&gt;&lt;td style=&quot;border-left: solid #000000 1pt ; border-right: solid #000000 1pt ; border-bottom: solid #000000 1pt ; border-top: solid #000000 1pt ; vertical-align: top ; padding: 5pt 5pt 5pt 5pt ; overflow: hidden ; overflow-wrap: break-word&quot;&gt;&lt;p dir=&quot;ltr&quot; style=&quot;line-height: 1.2 ; text-align: center ; margin-top: 0pt ; margin-bottom: 0pt&quot;&gt;&lt;span style=&quot;font-size: 12pt; font-family: arial; color: rgb(0, 0, 0); background-color: transparent; font-weight: 700; font-style: normal; font-variant: normal; text-decoration: none; vertical-align: baseline;&quot;&gt;DESVENTAJAS&amp;nbsp;&lt;/span&gt;&lt;/p&gt;&lt;/td&gt;&lt;/tr&gt;&lt;tr style=&quot;height: 21pt&quot;&gt;&lt;td rowspan=&quot;4&quot; style=&quot;border-left: solid #000000 1pt ; border-right: solid #000000 1pt ; border-bottom: solid #000000 1pt ; border-top: solid #000000 1pt ; vertical-align: top ; padding: 5pt 5pt 5pt 5pt ; overflow: hidden ; overflow-wrap: break-word&quot;&gt;&lt;br&gt;&lt;br&gt;&lt;br&gt;&lt;p dir=&quot;ltr&quot; style=&quot;line-height: 1.2 ; text-align: center ; margin-top: 0pt ; margin-bottom: 0pt&quot;&gt;&lt;span style=&quot;font-size: 11pt; font-family: arial; color: rgb(0, 0, 0); background-color: transparent; font-weight: 400; font-style: normal; font-variant: normal; text-decoration: none; vertical-align: baseline;&quot;&gt;ELÉCTRICOS&amp;nbsp;&lt;/span&gt;&lt;/p&gt;&lt;/td&gt;&lt;td style=&quot;border-left: solid #000000 1pt ; border-right: solid #000000 1pt ; border-bottom: solid #000000 1pt ; border-top: solid #000000 1pt ; vertical-align: top ; padding: 5pt 5pt 5pt 5pt ; overflow: hidden ; overflow-wrap: break-word&quot;&gt;&lt;p dir=&quot;ltr&quot; style=&quot;line-height: 1.2 ; margin-top: 0pt ; margin-bottom: 0pt&quot;&gt;&lt;span style=&quot;font-size: 11pt; font-family: arial; color: rgb(0, 0, 0); background-color: transparent; font-weight: 400; font-style: normal; font-variant: normal; text-decoration: none; vertical-align: baseline;&quot;&gt;Motores de corriente continua&lt;/span&gt;&lt;/p&gt;&lt;/td&gt;&lt;td style=&quot;border-left: solid #000000 1pt ; border-right: solid #000000 1pt ; border-bottom: solid #000000 1pt ; border-top: solid #000000 1pt ; vertical-align: top ; padding: 5pt 5pt 5pt 5pt ; overflow: hidden ; overflow-wrap: break-word&quot;&gt;&lt;br&gt;&lt;/td&gt;&lt;td style=&quot;border-left: solid #000000 1pt ; border-right: solid #000000 1pt ; border-bottom: solid #000000 1pt ; border-top: solid #000000 1pt ; vertical-align: top ; padding: 5pt 5pt 5pt 5pt ; overflow: hidden ; overflow-wrap: break-word&quot;&gt;&lt;ul style=&quot;margin-top: 0 ; margin-bottom: 0&quot;&gt;&lt;li dir=&quot;ltr&quot; style=&quot;list-style-type: disc; font-size: 11pt; font-family: arial; color: rgb(0, 0, 0); background-color: transparent; font-weight: 400; font-style: normal; font-variant: normal; text-decoration: none; vertical-align: baseline;&quot;&gt;&lt;p dir=&quot;ltr&quot; style=&quot;line-height: 1.2 ; margin-top: 0pt ; margin-bottom: 0pt&quot;&gt;&lt;span style=&quot;font-size: 11pt; font-family: arial; color: rgb(0, 0, 0); background-color: transparent; font-weight: 400; font-style: normal; font-variant: normal; text-decoration: none; vertical-align: baseline;&quot;&gt;Amplio rango de potencias&amp;nbsp;&lt;/span&gt;&lt;/p&gt;&lt;/li&gt;&lt;li dir=&quot;ltr&quot; style=&quot;list-style-type: disc; font-size: 11pt; font-family: arial; color: rgb(0, 0, 0); background-color: transparent; font-weight: 400; font-style: normal; font-variant: normal; text-decoration: none; vertical-align: baseline;&quot;&gt;&lt;p dir=&quot;ltr&quot; style=&quot;line-height: 1.2 ; margin-top: 0pt ; margin-bottom: 0pt&quot;&gt;&lt;span style=&quot;font-size: 11pt; font-family: arial; color: rgb(0, 0, 0); background-color: transparent; font-weight: 400; font-style: normal; font-variant: normal; text-decoration: none; vertical-align: baseline;&quot;&gt;Control de velocidad preciso&amp;nbsp;&lt;/span&gt;&lt;/p&gt;&lt;/li&gt;&lt;li dir=&quot;ltr&quot; style=&quot;list-style-type: disc; font-size: 11pt; font-family: arial; color: rgb(0, 0, 0); background-color: transparent; font-weight: 400; font-style: normal; font-variant: normal; text-decoration: none; vertical-align: baseline;&quot;&gt;&lt;p dir=&quot;ltr&quot; style=&quot;line-height: 1.2 ; margin-top: 0pt ; margin-bottom: 0pt&quot;&gt;&lt;span style=&quot;font-size: 11pt; font-family: arial; color: rgb(0, 0, 0); background-color: transparent; font-weight: 400; font-style: normal; font-variant: normal; text-decoration: none; vertical-align: baseline;&quot;&gt;Permite un control preciso&amp;nbsp;&lt;/span&gt;&lt;/p&gt;&lt;/li&gt;&lt;li dir=&quot;ltr&quot; style=&quot;list-style-type: disc; font-size: 11pt; font-family: arial; color: rgb(0, 0, 0); background-color: transparent; font-weight: 400; font-style: normal; font-variant: normal; text-decoration: none; vertical-align: baseline;&quot;&gt;&lt;p dir=&quot;ltr&quot; style=&quot;line-height: 1.2 ; margin-top: 0pt ; margin-bottom: 0pt&quot;&gt;&lt;span style=&quot;font-size: 11pt; font-family: arial; color: rgb(0, 0, 0); background-color: transparent; font-weight: 400; font-style: normal; font-variant: normal; text-decoration: none; vertical-align: baseline;&quot;&gt;Es reversible&amp;nbsp;&lt;/span&gt;&lt;/p&gt;&lt;/li&gt;&lt;/ul&gt;&lt;/td&gt;&lt;td style=&quot;border-left: solid #000000 1pt ; border-right: solid #000000 1pt ; border-bottom: solid #000000 1pt ; border-top: solid #000000 1pt ; vertical-align: top ; padding: 5pt 5pt 5pt 5pt ; overflow: hidden ; overflow-wrap: break-word&quot;&gt;&lt;p dir=&quot;ltr&quot; style=&quot;line-height: 1.2 ; margin-top: 0pt ; margin-bottom: 0pt&quot;&gt;&lt;span style=&quot;font-size: 11pt; font-family: arial; color: rgb(0, 0, 0); background-color: transparent; font-weight: 400; font-style: normal; font-variant: normal; text-decoration: none; vertical-align: baseline;&quot;&gt;Su construcción es menor robusta&lt;/span&gt;&lt;/p&gt;&lt;p dir=&quot;ltr&quot; style=&quot;line-height: 1.2 ; margin-top: 0pt ; margin-bottom: 0pt&quot;&gt;&lt;span style=&quot;font-size: 11pt; font-family: arial; color: rgb(0, 0, 0); background-color: transparent; font-weight: 400; font-style: normal; font-variant: normal; text-decoration: none; vertical-align: baseline;&quot;&gt;Requiere mayor mantenimiento&amp;nbsp;&lt;/span&gt;&lt;/p&gt;&lt;p dir=&quot;ltr&quot; style=&quot;line-height: 1.2 ; margin-top: 0pt ; margin-bottom: 0pt&quot;&gt;&lt;span style=&quot;font-size: 11pt; font-family: arial; color: rgb(0, 0, 0); background-color: transparent; font-weight: 400; font-style: normal; font-variant: normal; text-decoration: none; vertical-align: baseline;&quot;&gt;Mayor tamaño por unidad de potencia&amp;nbsp;&lt;/span&gt;&lt;/p&gt;&lt;/td&gt;&lt;/tr&gt;&lt;tr style=&quot;height: 21pt&quot;&gt;&lt;td style=&quot;border-left: solid #000000 1pt ; border-right: solid #000000 1pt ; border-bottom: solid #000000 1pt ; border-top: solid #000000 1pt ; vertical-align: top ; padding: 5pt 5pt 5pt 5pt ; overflow: hidden ; overflow-wrap: break-word&quot;&gt;&lt;p dir=&quot;ltr&quot; style=&quot;line-height: 1.2 ; margin-top: 0pt ; margin-bottom: 0pt&quot;&gt;&lt;span style=&quot;font-size: 11pt; font-family: arial; color: rgb(0, 0, 0); background-color: transparent; font-weight: 400; font-style: normal; font-variant: normal; text-decoration: none; vertical-align: baseline;&quot;&gt;Motores de corriente alterna (Asíncronos)&amp;nbsp;&lt;/span&gt;&lt;/p&gt;&lt;/td&gt;&lt;td style=&quot;border-left: solid #000000 1pt ; border-right: solid #000000 1pt ; border-bottom: solid #000000 1pt ; border-top: solid #000000 1pt ; vertical-align: top ; padding: 5pt 5pt 5pt 5pt ; overflow: hidden ; overflow-wrap: break-word&quot;&gt;&lt;br&gt;&lt;/td&gt;&lt;td style=&quot;border-left: solid #000000 1pt ; border-right: solid #000000 1pt ; border-bottom: solid #000000 1pt ; border-top: solid #000000 1pt ; vertical-align: top ; padding: 5pt 5pt 5pt 5pt ; overflow: hidden ; overflow-wrap: break-word&quot;&gt;&lt;br&gt;&lt;/td&gt;&lt;td style=&quot;border-left: solid #000000 1pt ; border-right: solid #000000 1pt ; border-bottom: solid #000000 1pt ; border-top: solid #000000 1pt ; vertical-align: top ; padding: 5pt 5pt 5pt 5pt ; overflow: hidden ; overflow-wrap: break-word&quot;&gt;&lt;br&gt;&lt;/td&gt;&lt;/tr&gt;&lt;tr style=&quot;height: 21pt&quot;&gt;&lt;td style=&quot;border-left: solid #000000 1pt ; border-right: solid #000000 1pt ; border-bottom: solid #000000 1pt ; border-top: solid #000000 1pt ; vertical-align: top ; padding: 5pt 5pt 5pt 5pt ; overflow: hidden ; overflow-wrap: break-word&quot;&gt;&lt;p dir=&quot;ltr&quot; style=&quot;line-height: 1.2 ; margin-top: 0pt ; margin-bottom: 0pt&quot;&gt;&lt;span style=&quot;font-size: 11pt; font-family: arial; color: rgb(0, 0, 0); background-color: transparent; font-weight: 400; font-style: normal; font-variant: normal; text-decoration: none; vertical-align: baseline;&quot;&gt;Motores de corriente alterna (síncronos)&lt;/span&gt;&lt;/p&gt;&lt;/td&gt;&lt;td style=&quot;border-left: solid #000000 1pt ; border-right: solid #000000 1pt ; border-bottom: solid #000000 1pt ; border-top: solid #000000 1pt ; vertical-align: top ; padding: 5pt 5pt 5pt 5pt ; overflow: hidden ; overflow-wrap: break-word&quot;&gt;&lt;br&gt;&lt;/td&gt;&lt;td style=&quot;border-left: solid #000000 1pt ; border-right: solid #000000 1pt ; border-bottom: solid #000000 1pt ; border-top: solid #000000 1pt ; vertical-align: top ; padding: 5pt 5pt 5pt 5pt ; overflow: hidden ; overflow-wrap: break-word&quot;&gt;&lt;br&gt;&lt;/td&gt;&lt;td style=&quot;border-left: solid #000000 1pt ; border-right: solid #000000 1pt ; border-bottom: solid #000000 1pt ; border-top: solid #000000 1pt ; vertical-align: top ; padding: 5pt 5pt 5pt 5pt ; overflow: hidden ; overflow-wrap: break-word&quot;&gt;&lt;br&gt;&lt;/td&gt;&lt;/tr&gt;&lt;tr style=&quot;height: 21pt&quot;&gt;&lt;td style=&quot;border-left: solid #000000 1pt ; border-right: solid #000000 1pt ; border-bottom: solid #000000 1pt ; border-top: solid #000000 1pt ; vertical-align: top ; padding: 5pt 5pt 5pt 5pt ; overflow: hidden ; overflow-wrap: break-word&quot;&gt;&lt;p dir=&quot;ltr&quot; style=&quot;line-height: 1.2 ; margin-top: 0pt ; margin-bottom: 0pt&quot;&gt;&lt;span style=&quot;font-size: 11pt; font-family: arial; color: rgb(0, 0, 0); background-color: transparent; font-weight: 400; font-style: normal; font-variant: normal; text-decoration: none; vertical-align: baseline;&quot;&gt;Motores paso a paso&amp;nbsp;&lt;/span&gt;&lt;/p&gt;&lt;/td&gt;&lt;td style=&quot;border-left: solid #000000 1pt ; border-right: solid #000000 1pt ; border-bottom: solid #000000 1pt ; border-top: solid #000000 1pt ; vertical-align: top ; padding: 5pt 5pt 5pt 5pt ; overflow: hidden ; overflow-wrap: break-word&quot;&gt;&lt;br&gt;&lt;/td&gt;&lt;td style=&quot;border-left: solid #000000 1pt ; border-right: solid #000000 1pt ; border-bottom: solid #000000 1pt ; border-top: solid #000000 1pt ; vertical-align: top ; padding: 5pt 5pt 5pt 5pt ; overflow: hidden ; overflow-wrap: break-word&quot;&gt;&lt;br&gt;&lt;/td&gt;&lt;td style=&quot;border-left: solid #000000 1pt ; border-right: solid #000000 1pt ; border-bottom: solid #000000 1pt ; border-top: solid #000000 1pt ; vertical-align: top ; padding: 5pt 5pt 5pt 5pt ; overflow: hidden ; overflow-wrap: break-word&quot;&gt;&lt;br&gt;&lt;/td&gt;&lt;/tr&gt;&lt;tr style=&quot;height: 0pt&quot;&gt;&lt;td style=&quot;border-left: solid #000000 1pt ; border-right: solid #000000 1pt ; border-bottom: solid #000000 1pt ; border-top: solid #000000 1pt ; vertical-align: top ; padding: 5pt 5pt 5pt 5pt ; overflow: hidden ; overflow-wrap: break-word&quot;&gt;&lt;br&gt;&lt;/td&gt;&lt;td style=&quot;border-left: solid #000000 1pt ; border-right: solid #000000 1pt ; border-bottom: solid #000000 1pt ; border-top: solid #000000 1pt ; vertical-align: top ; padding: 5pt 5pt 5pt 5pt ; overflow: hidden ; overflow-wrap: break-word&quot;&gt;&lt;br&gt;&lt;/td&gt;&lt;td style=&quot;border-left: solid #000000 1pt ; border-right: solid #000000 1pt ; border-bottom: solid #000000 1pt ; border-top: solid #000000 1pt ; vertical-align: top ; padding: 5pt 5pt 5pt 5pt ; overflow: hidden ; overflow-wrap: break-word&quot;&gt;&lt;br&gt;&lt;/td&gt;&lt;td style=&quot;border-left: solid #000000 1pt ; border-right: solid #000000 1pt ; border-bottom: solid #000000 1pt ; border-top: solid #000000 1pt ; vertical-align: top ; padding: 5pt 5pt 5pt 5pt ; overflow: hidden ; overflow-wrap: break-word&quot;&gt;&lt;br&gt;&lt;/td&gt;&lt;td style=&quot;border-left: solid #000000 1pt ; border-right: solid #000000 1pt ; border-bottom: solid #000000 1pt ; border-top: solid #000000 1pt ; vertical-align: top ; padding: 5pt 5pt 5pt 5pt ; overflow: hidden ; overflow-wrap: break-word&quot;&gt;&lt;br&gt;&lt;/td&gt;&lt;/tr&gt;&lt;tr style=&quot;height: 0pt&quot;&gt;&lt;td style=&quot;border-left: solid #000000 1pt ; border-right: solid #000000 1pt ; border-bottom: solid #000000 1pt ; border-top: solid #000000 1pt ; vertical-align: top ; padding: 5pt 5pt 5pt 5pt ; overflow: hidden ; overflow-wrap: break-word&quot;&gt;&lt;br&gt;&lt;/td&gt;&lt;td style=&quot;border-left: solid #000000 1pt ; border-right: solid #000000 1pt ; border-bottom: solid #000000 1pt ; border-top: solid #000000 1pt ; vertical-align: top ; padding: 5pt 5pt 5pt 5pt ; overflow: hidden ; overflow-wrap: break-word&quot;&gt;&lt;br&gt;&lt;/td&gt;&lt;td style=&quot;border-left: solid #000000 1pt ; border-right: solid #000000 1pt ; border-bottom: solid #000000 1pt ; border-top: solid #000000 1pt ; vertical-align: top ; padding: 5pt 5pt 5pt 5pt ; overflow: hidden ; overflow-wrap: break-word&quot;&gt;&lt;br&gt;&lt;/td&gt;&lt;td style=&quot;border-left: solid #000000 1pt ; border-right: solid #000000 1pt ; border-bottom: solid #000000 1pt ; border-top: solid #000000 1pt ; vertical-align: top ; padding: 5pt 5pt 5pt 5pt ; overflow: hidden ; overflow-wrap: break-word&quot;&gt;&lt;br&gt;&lt;/td&gt;&lt;td style=&quot;border-left: solid #000000 1pt ; border-right: solid #000000 1pt ; border-bottom: solid #000000 1pt ; border-top: solid #000000 1pt ; vertical-align: top ; padding: 5pt 5pt 5pt 5pt ; overflow: hidden ; overflow-wrap: break-word&quot;&gt;&lt;br&gt;&lt;/td&gt;&lt;/tr&gt;&lt;tr style=&quot;height: 0pt&quot;&gt;&lt;td style=&quot;border-left: solid #000000 1pt ; border-right: solid #000000 1pt ; border-bottom: solid #000000 1pt ; border-top: solid #000000 1pt ; vertical-align: top ; padding: 5pt 5pt 5pt 5pt ; overflow: hidden ; overflow-wrap: break-word&quot;&gt;&lt;br&gt;&lt;/td&gt;&lt;td style=&quot;border-left: solid #000000 1pt ; border-right: solid #000000 1pt ; border-bottom: solid #000000 1pt ; border-top: solid #000000 1pt ; vertical-align: top ; padding: 5pt 5pt 5pt 5pt ; overflow: hidden ; overflow-wrap: break-word&quot;&gt;&lt;br&gt;&lt;/td&gt;&lt;td style=&quot;border-left: solid #000000 1pt ; border-right: solid #000000 1pt ; border-bottom: solid #000000 1pt ; border-top: solid #000000 1pt ; vertical-align: top ; padding: 5pt 5pt 5pt 5pt ; overflow: hidden ; overflow-wrap: break-word&quot;&gt;&lt;br&gt;&lt;/td&gt;&lt;td style=&quot;border-left: solid #000000 1pt ; border-right: solid #000000 1pt ; border-bottom: solid #000000 1pt ; border-top: solid #000000 1pt ; vertical-align: top ; padding: 5pt 5pt 5pt 5pt ; overflow: hidden ; overflow-wrap: break-word&quot;&gt;&lt;br&gt;&lt;/td&gt;&lt;td style=&quot;border-left: solid #000000 1pt ; border-right: solid #000000 1pt ; border-bottom: solid #000000 1pt ; border-top: solid #000000 1pt ; vertical-align: top ; padding: 5pt 5pt 5pt 5pt ; overflow: hidden ; overflow-wrap: break-word&quot;&gt;&lt;br&gt;&lt;/td&gt;&lt;/tr&gt;&lt;tr style=&quot;height: 0pt&quot;&gt;&lt;td style=&quot;border-left: solid #000000 1pt ; border-right: solid #000000 1pt ; border-bottom: solid #000000 1pt ; border-top: solid #000000 1pt ; vertical-align: top ; padding: 5pt 5pt 5pt 5pt ; overflow: hidden ; overflow-wrap: break-word&quot;&gt;&lt;br&gt;&lt;/td&gt;&lt;td style=&quot;border-left: solid #000000 1pt ; border-right: solid #000000 1pt ; border-bottom: solid #000000 1pt ; border-top: solid #000000 1pt ; vertical-align: top ; padding: 5pt 5pt 5pt 5pt ; overflow: hidden ; overflow-wrap: break-word&quot;&gt;&lt;br&gt;&lt;/td&gt;&lt;td style=&quot;border-left: solid #000000 1pt ; border-right: solid #000000 1pt ; border-bottom: solid #000000 1pt ; border-top: solid #000000 1pt ; vertical-align: top ; padding: 5pt 5pt 5pt 5pt ; overflow: hidden ; overflow-wrap: break-word&quot;&gt;&lt;br&gt;&lt;/td&gt;&lt;td style=&quot;border-left: solid #000000 1pt ; border-right: solid #000000 1pt ; border-bottom: solid #000000 1pt ; border-top: solid #000000 1pt ; vertical-align: top ; padding: 5pt 5pt 5pt 5pt ; overflow: hidden ; overflow-wrap: break-word&quot;&gt;&lt;br&gt;&lt;/td&gt;&lt;td style=&quot;border-left: solid #000000 1pt ; border-right: solid #000000 1pt ; border-bottom: solid #000000 1pt ; border-top: solid #000000 1pt ; vertical-align: top ; padding: 5pt 5pt 5pt 5pt ; overflow: hidden ; overflow-wrap: break-word&quot;&gt;&lt;br&gt;&lt;/td&gt;&lt;/tr&gt;&lt;tr style=&quot;height: 0pt&quot;&gt;&lt;td style=&quot;border-left: solid #000000 1pt ; border-right: solid #000000 1pt ; border-bottom: solid #000000 1pt ; border-top: solid #000000 1pt ; vertical-align: top ; padding: 5pt 5pt 5pt 5pt ; overflow: hidden ; overflow-wrap: break-word&quot;&gt;&lt;br&gt;&lt;/td&gt;&lt;td style=&quot;border-left: solid #000000 1pt ; border-right: solid #000000 1pt ; border-bottom: solid #000000 1pt ; border-top: solid #000000 1pt ; vertical-align: top ; padding: 5pt 5pt 5pt 5pt ; overflow: hidden ; overflow-wrap: break-word&quot;&gt;&lt;br&gt;&lt;/td&gt;&lt;td style=&quot;border-left: solid #000000 1pt ; border-right: solid #000000 1pt ; border-bottom: solid #000000 1pt ; border-top: solid #000000 1pt ; vertical-align: top ; padding: 5pt 5pt 5pt 5pt ; overflow: hidden ; overflow-wrap: break-word&quot;&gt;&lt;br&gt;&lt;/td&gt;&lt;td style=&quot;border-left: solid #000000 1pt ; border-right: solid #000000 1pt ; border-bottom: solid #000000 1pt ; border-top: solid #000000 1pt ; vertical-align: top ; padding: 5pt 5pt 5pt 5pt ; overflow: hidden ; overflow-wrap: break-word&quot;&gt;&lt;br&gt;&lt;/td&gt;&lt;td style=&quot;border-left: solid #000000 1pt ; border-right: solid #000000 1pt ; border-bottom: solid #000000 1pt ; border-top: solid #000000 1pt ; vertical-align: top ; padding: 5pt 5pt 5pt 5pt ; overflow: hidden ; overflow-wrap: break-word&quot;&gt;&lt;br&gt;&lt;/td&gt;&lt;/tr&gt;&lt;/tbody&gt;&lt;/table&gt;&lt;/div&gt;&lt;/b&gt;" style="text;whiteSpace=wrap;html=1;" vertex="1" parent="1">
                    <mxGeometry x="50" y="160" width="550" height="530" as="geometry"/>
                </mxCell>
            </root>
        </mxGraphModel>
    </diagram>
</mxfile>